<svg width="51" height="20" viewBox="0 0 51 20" fill="none" xmlns="http://www.w3.org/2000/svg">
<rect x="22" y="3" width="26" height="15" rx="3" fill="#F7971D"/>
<path d="M7.524 14.12C6.148 14.12 5.1 13.784 4.38 13.112C3.66 12.432 3.3 11.464 3.3 10.208C3.3 8.912 3.672 7.912 4.416 7.208C5.16 6.504 6.248 6.152 7.68 6.152C8.16 6.152 8.592 6.18 8.976 6.236C9.368 6.292 9.736 6.376 10.08 6.488V8.42C9.728 8.284 9.364 8.192 8.988 8.144C8.612 8.096 8.228 8.072 7.836 8.072C7.092 8.072 6.532 8.24 6.156 8.576C5.788 8.912 5.604 9.456 5.604 10.208C5.604 10.912 5.764 11.42 6.084 11.732C6.412 12.044 6.892 12.2 7.524 12.2C7.732 12.2 7.928 12.188 8.112 12.164C8.296 12.132 8.468 12.092 8.628 12.044V10.916H7.092V9.524H10.512V13.412C10.216 13.596 9.82 13.76 9.324 13.904C8.836 14.048 8.236 14.12 7.524 14.12ZM11.3564 14V6.272H13.6124V14H11.3564ZM17.1323 14.12C16.3723 14.12 15.8203 13.928 15.4763 13.544C15.1323 13.16 14.9603 12.64 14.9603 11.984V9.98H14.2163V8.312H14.9603V7.148L17.2163 6.608V8.312H18.5243L18.4403 9.98H17.2163V11.816C17.2163 12.056 17.2763 12.228 17.3963 12.332C17.5163 12.428 17.7003 12.476 17.9483 12.476C18.1803 12.476 18.4163 12.436 18.6563 12.356V13.856C18.2323 14.032 17.7243 14.12 17.1323 14.12Z" fill="white"/>
<path d="M24.54 14V5.912H26.796V8.66C26.996 8.524 27.244 8.412 27.54 8.324C27.844 8.236 28.168 8.192 28.512 8.192C29.296 8.192 29.868 8.376 30.228 8.744C30.588 9.104 30.768 9.664 30.768 10.424V14H28.5V10.592C28.5 10.328 28.444 10.14 28.332 10.028C28.228 9.916 28.036 9.86 27.756 9.86C27.588 9.86 27.412 9.9 27.228 9.98C27.052 10.06 26.908 10.156 26.796 10.268V14H24.54ZM33.8462 14.12C33.1822 14.12 32.6622 13.932 32.2862 13.556C31.9102 13.18 31.7222 12.628 31.7222 11.9V8.312H33.9782V11.72C33.9782 12.216 34.2302 12.464 34.7342 12.464C34.9182 12.464 35.0982 12.424 35.2742 12.344C35.4502 12.264 35.5902 12.164 35.6942 12.044V8.312H37.9502V14H35.8382L35.7782 13.568C35.5542 13.728 35.2782 13.86 34.9502 13.964C34.6302 14.068 34.2622 14.12 33.8462 14.12ZM42.8164 14.12C42.4484 14.12 42.1244 14.072 41.8444 13.976C41.5724 13.872 41.3204 13.732 41.0884 13.556L40.9804 14H39.0244V5.912H41.2804V8.516C41.4724 8.412 41.6964 8.332 41.9524 8.276C42.2164 8.22 42.4804 8.192 42.7444 8.192C43.5924 8.192 44.2564 8.42 44.7364 8.876C45.2244 9.324 45.4684 10.068 45.4684 11.108C45.4684 12.124 45.2284 12.88 44.7484 13.376C44.2684 13.872 43.6244 14.12 42.8164 14.12ZM42.1684 12.488C42.5204 12.488 42.7724 12.384 42.9244 12.176C43.0844 11.96 43.1644 11.612 43.1644 11.132C43.1644 10.644 43.0804 10.304 42.9124 10.112C42.7524 9.92 42.5044 9.824 42.1684 9.824C41.8004 9.824 41.5044 9.924 41.2804 10.124V12.14C41.5284 12.372 41.8244 12.488 42.1684 12.488Z" fill="white"/>
</svg>
